<mxfile host="app.diagrams.net" agent="Mozilla/5.0 (Windows NT 10.0; Win64; x64) AppleWebKit/537.36 (KHTML, like Gecko) Chrome/136.0.0.0 Safari/537.36 Edg/136.0.0.0" version="27.0.5">
  <diagram name="第 1 页" id="zvSUY6T6_Y0GB6HIT6o8">
    <mxGraphModel dx="1524" dy="1062" grid="1" gridSize="10" guides="1" tooltips="1" connect="1" arrows="1" fold="1" page="1" pageScale="1" pageWidth="827" pageHeight="1169" math="0" shadow="0">
      <root>
        <mxCell id="0" />
        <mxCell id="1" parent="0" />
        <mxCell id="VDZzqtf6pBX9vTgafcBY-35" value="&lt;font style=&quot;font-size: 45px;&quot;&gt;Game.draw();&lt;/font&gt;" style="swimlane;whiteSpace=wrap;html=1;startSize=100;fontSize=20;" vertex="1" parent="1">
          <mxGeometry x="840" y="20" width="1460" height="1130" as="geometry">
            <mxRectangle x="840" y="20" width="200" height="100" as="alternateBounds" />
          </mxGeometry>
        </mxCell>
        <mxCell id="VDZzqtf6pBX9vTgafcBY-46" style="edgeStyle=orthogonalEdgeStyle;rounded=0;orthogonalLoop=1;jettySize=auto;html=1;exitX=1;exitY=0.5;exitDx=0;exitDy=0;entryX=0;entryY=0.5;entryDx=0;entryDy=0;" edge="1" parent="VDZzqtf6pBX9vTgafcBY-35" target="VDZzqtf6pBX9vTgafcBY-44">
          <mxGeometry relative="1" as="geometry">
            <mxPoint x="160" y="260" as="sourcePoint" />
          </mxGeometry>
        </mxCell>
        <mxCell id="VDZzqtf6pBX9vTgafcBY-71" style="edgeStyle=orthogonalEdgeStyle;rounded=0;orthogonalLoop=1;jettySize=auto;html=1;exitX=0.25;exitY=1;exitDx=0;exitDy=0;entryX=0.25;entryY=0;entryDx=0;entryDy=0;" edge="1" parent="VDZzqtf6pBX9vTgafcBY-35" source="VDZzqtf6pBX9vTgafcBY-51" target="VDZzqtf6pBX9vTgafcBY-64">
          <mxGeometry relative="1" as="geometry" />
        </mxCell>
        <mxCell id="VDZzqtf6pBX9vTgafcBY-51" value="&lt;span style=&quot;font-weight: 400;&quot;&gt;START&lt;/span&gt;" style="swimlane;whiteSpace=wrap;html=1;fillColor=#dae8fc;strokeColor=#6c8ebf;" vertex="1" parent="VDZzqtf6pBX9vTgafcBY-35">
          <mxGeometry x="20" y="530" width="180" height="160" as="geometry">
            <mxRectangle x="40" y="130" width="120" height="60" as="alternateBounds" />
          </mxGeometry>
        </mxCell>
        <mxCell id="VDZzqtf6pBX9vTgafcBY-53" value="drawStartPage();" style="rounded=0;whiteSpace=wrap;html=1;" vertex="1" parent="VDZzqtf6pBX9vTgafcBY-51">
          <mxGeometry x="25" y="60" width="130" height="60" as="geometry" />
        </mxCell>
        <mxCell id="VDZzqtf6pBX9vTgafcBY-72" style="edgeStyle=orthogonalEdgeStyle;rounded=0;orthogonalLoop=1;jettySize=auto;html=1;exitX=0.75;exitY=0;exitDx=0;exitDy=0;entryX=0.75;entryY=1;entryDx=0;entryDy=0;" edge="1" parent="VDZzqtf6pBX9vTgafcBY-35" source="VDZzqtf6pBX9vTgafcBY-64" target="VDZzqtf6pBX9vTgafcBY-51">
          <mxGeometry relative="1" as="geometry" />
        </mxCell>
        <mxCell id="VDZzqtf6pBX9vTgafcBY-64" value="&lt;span style=&quot;font-weight: 400;&quot;&gt;ABOUTUS&lt;/span&gt;" style="swimlane;whiteSpace=wrap;html=1;fillColor=#dae8fc;strokeColor=#6c8ebf;" vertex="1" parent="VDZzqtf6pBX9vTgafcBY-35">
          <mxGeometry x="20" y="790" width="180" height="160" as="geometry">
            <mxRectangle x="40" y="390" width="120" height="60" as="alternateBounds" />
          </mxGeometry>
        </mxCell>
        <mxCell id="VDZzqtf6pBX9vTgafcBY-65" value="drawAboutUS();" style="rounded=0;whiteSpace=wrap;html=1;" vertex="1" parent="VDZzqtf6pBX9vTgafcBY-64">
          <mxGeometry x="25" y="60" width="130" height="60" as="geometry" />
        </mxCell>
        <mxCell id="VDZzqtf6pBX9vTgafcBY-66" value="&lt;span style=&quot;font-weight: 400;&quot;&gt;LEVEL1&lt;/span&gt;" style="swimlane;whiteSpace=wrap;html=1;startSize=30;fillColor=#dae8fc;strokeColor=#6c8ebf;" vertex="1" parent="VDZzqtf6pBX9vTgafcBY-35">
          <mxGeometry x="240" y="110" width="560" height="1010" as="geometry">
            <mxRectangle x="130" y="340" width="120" height="60" as="alternateBounds" />
          </mxGeometry>
        </mxCell>
        <mxCell id="VDZzqtf6pBX9vTgafcBY-86" value="doodleJump.draw();" style="swimlane;whiteSpace=wrap;html=1;startSize=23;fillColor=#ffe6cc;strokeColor=#d79b00;" vertex="1" parent="VDZzqtf6pBX9vTgafcBY-66">
          <mxGeometry x="16" y="44" width="524" height="946" as="geometry">
            <mxRectangle x="180" y="260" width="130" height="60" as="alternateBounds" />
          </mxGeometry>
        </mxCell>
        <mxCell id="VDZzqtf6pBX9vTgafcBY-70" value="START" style="swimlane;whiteSpace=wrap;html=1;startSize=23;fillColor=#dae8fc;strokeColor=#6c8ebf;" vertex="1" parent="VDZzqtf6pBX9vTgafcBY-86">
          <mxGeometry x="46" y="266" width="166" height="114" as="geometry">
            <mxRectangle x="180" y="260" width="130" height="60" as="alternateBounds" />
          </mxGeometry>
        </mxCell>
        <mxCell id="VDZzqtf6pBX9vTgafcBY-93" value="drawInfoPage();" style="whiteSpace=wrap;html=1;" vertex="1" parent="VDZzqtf6pBX9vTgafcBY-70">
          <mxGeometry x="23" y="40" width="120" height="60" as="geometry" />
        </mxCell>
        <mxCell id="VDZzqtf6pBX9vTgafcBY-74" value="PLAYING" style="swimlane;whiteSpace=wrap;html=1;startSize=23;fillColor=#f8cecc;strokeColor=#b85450;" vertex="1" parent="VDZzqtf6pBX9vTgafcBY-86">
          <mxGeometry x="30" y="418" width="260" height="352" as="geometry">
            <mxRectangle x="180" y="260" width="130" height="60" as="alternateBounds" />
          </mxGeometry>
        </mxCell>
        <mxCell id="VDZzqtf6pBX9vTgafcBY-134" value="&lt;span style=&quot;background-color: transparent; color: light-dark(rgb(0, 0, 0), rgb(255, 255, 255));&quot;&gt;check freeze timer&lt;/span&gt;" style="swimlane;whiteSpace=wrap;html=1;" vertex="1" parent="VDZzqtf6pBX9vTgafcBY-74">
          <mxGeometry x="133" y="68" width="115" height="95" as="geometry" />
        </mxCell>
        <mxCell id="VDZzqtf6pBX9vTgafcBY-135" value="&lt;div&gt;stayTopCheck();&lt;/div&gt;&lt;div&gt;hitIconCheck();&lt;/div&gt;&lt;div&gt;move the canva&lt;/div&gt;" style="rounded=0;whiteSpace=wrap;html=1;" vertex="1" parent="VDZzqtf6pBX9vTgafcBY-134">
          <mxGeometry x="8.120000000000001" y="26" width="103.5" height="64" as="geometry" />
        </mxCell>
        <mxCell id="VDZzqtf6pBX9vTgafcBY-136" value="&lt;span style=&quot;font-weight: 400;&quot;&gt;block.draw();&lt;/span&gt;" style="swimlane;whiteSpace=wrap;html=1;fillColor=#ffe6cc;strokeColor=#d79b00;" vertex="1" parent="VDZzqtf6pBX9vTgafcBY-74">
          <mxGeometry x="9" y="168" width="131" height="172" as="geometry">
            <mxRectangle x="40" y="390" width="120" height="60" as="alternateBounds" />
          </mxGeometry>
        </mxCell>
        <mxCell id="VDZzqtf6pBX9vTgafcBY-137" value="getRandomIconType()&lt;div&gt;getRandomIconX()&lt;br&gt;drawIcon(int y)&lt;/div&gt;" style="rounded=0;whiteSpace=wrap;html=1;" vertex="1" parent="VDZzqtf6pBX9vTgafcBY-136">
          <mxGeometry x="5.5" y="30" width="124.5" height="130" as="geometry" />
        </mxCell>
        <mxCell id="VDZzqtf6pBX9vTgafcBY-160" style="edgeStyle=orthogonalEdgeStyle;rounded=0;orthogonalLoop=1;jettySize=auto;html=1;exitX=0.5;exitY=0;exitDx=0;exitDy=0;entryX=1;entryY=0.5;entryDx=0;entryDy=0;" edge="1" parent="VDZzqtf6pBX9vTgafcBY-74" source="VDZzqtf6pBX9vTgafcBY-154" target="VDZzqtf6pBX9vTgafcBY-136">
          <mxGeometry relative="1" as="geometry" />
        </mxCell>
        <mxCell id="VDZzqtf6pBX9vTgafcBY-154" value="&lt;span style=&quot;font-weight: 700;&quot;&gt;updateByKeyPress&lt;/span&gt;" style="rounded=0;whiteSpace=wrap;html=1;" vertex="1" parent="VDZzqtf6pBX9vTgafcBY-74">
          <mxGeometry x="147.63" y="300" width="112.37" height="40" as="geometry" />
        </mxCell>
        <mxCell id="VDZzqtf6pBX9vTgafcBY-75" value="GAMEOVER" style="swimlane;whiteSpace=wrap;html=1;startSize=23;fillColor=#dae8fc;strokeColor=#6c8ebf;" vertex="1" parent="VDZzqtf6pBX9vTgafcBY-86">
          <mxGeometry x="314" y="46" width="156" height="114" as="geometry">
            <mxRectangle x="180" y="260" width="130" height="60" as="alternateBounds" />
          </mxGeometry>
        </mxCell>
        <mxCell id="VDZzqtf6pBX9vTgafcBY-103" value="drawGameOver();" style="whiteSpace=wrap;html=1;" vertex="1" parent="VDZzqtf6pBX9vTgafcBY-75">
          <mxGeometry x="18" y="40.5" width="120" height="60" as="geometry" />
        </mxCell>
        <mxCell id="VDZzqtf6pBX9vTgafcBY-76" value="END" style="swimlane;whiteSpace=wrap;html=1;startSize=23;fillColor=#dae8fc;strokeColor=#6c8ebf;" vertex="1" parent="VDZzqtf6pBX9vTgafcBY-86">
          <mxGeometry x="314" y="646" width="160" height="110" as="geometry">
            <mxRectangle x="180" y="260" width="130" height="60" as="alternateBounds" />
          </mxGeometry>
        </mxCell>
        <mxCell id="VDZzqtf6pBX9vTgafcBY-104" value="drawResultPage();" style="whiteSpace=wrap;html=1;" vertex="1" parent="VDZzqtf6pBX9vTgafcBY-76">
          <mxGeometry x="20" y="40" width="120" height="60" as="geometry" />
        </mxCell>
        <mxCell id="VDZzqtf6pBX9vTgafcBY-77" value="QUIZ" style="swimlane;whiteSpace=wrap;html=1;startSize=23;fillColor=#dae8fc;strokeColor=#6c8ebf;" vertex="1" parent="VDZzqtf6pBX9vTgafcBY-86">
          <mxGeometry x="314" y="240" width="160" height="390" as="geometry">
            <mxRectangle x="180" y="260" width="130" height="60" as="alternateBounds" />
          </mxGeometry>
        </mxCell>
        <mxCell id="VDZzqtf6pBX9vTgafcBY-106" value="&lt;span style=&quot;font-weight: 400;&quot;&gt;quiz.draw();&lt;/span&gt;" style="swimlane;whiteSpace=wrap;html=1;startSize=23;fillColor=#ffe6cc;strokeColor=#d79b00;" vertex="1" parent="VDZzqtf6pBX9vTgafcBY-77">
          <mxGeometry x="11" y="226" width="140" height="144" as="geometry">
            <mxRectangle x="180" y="260" width="130" height="60" as="alternateBounds" />
          </mxGeometry>
        </mxCell>
        <mxCell id="VDZzqtf6pBX9vTgafcBY-139" value="drawQuestion();&lt;div&gt;&lt;div&gt;drawChoices();&lt;/div&gt;&lt;div&gt;&amp;nbsp;drawButtons();&lt;/div&gt;&lt;div&gt;&amp;nbsp;drawInputTitle();&lt;/div&gt;&lt;div&gt;&amp;nbsp;drawInput();&lt;/div&gt;&lt;/div&gt;&lt;div&gt;&lt;div&gt;drawSubmitButton();&lt;/div&gt;&lt;div&gt;&amp;nbsp; &amp;nbsp; &amp;nbsp; drawResult();&lt;/div&gt;&lt;/div&gt;" style="whiteSpace=wrap;html=1;" vertex="1" parent="VDZzqtf6pBX9vTgafcBY-106">
          <mxGeometry x="10" y="32" width="120" height="102.5" as="geometry" />
        </mxCell>
        <mxCell id="VDZzqtf6pBX9vTgafcBY-166" value="updateAnserByKeyPress();&lt;div&gt;handleSubmit();&lt;/div&gt;&lt;div&gt;Question(JSONObject obj)&lt;/div&gt;" style="whiteSpace=wrap;html=1;" vertex="1" parent="VDZzqtf6pBX9vTgafcBY-77">
          <mxGeometry x="5" y="36" width="150" height="56" as="geometry" />
        </mxCell>
        <mxCell id="VDZzqtf6pBX9vTgafcBY-138" value="&lt;span style=&quot;font-weight: 400;&quot;&gt;Question&lt;/span&gt;" style="swimlane;whiteSpace=wrap;html=1;startSize=23;fillColor=#ffe6cc;strokeColor=#d79b00;" vertex="1" parent="VDZzqtf6pBX9vTgafcBY-77">
          <mxGeometry x="20" y="121" width="120" height="68" as="geometry">
            <mxRectangle x="180" y="260" width="130" height="60" as="alternateBounds" />
          </mxGeometry>
        </mxCell>
        <mxCell id="VDZzqtf6pBX9vTgafcBY-168" value="getJSONArray" style="whiteSpace=wrap;html=1;" vertex="1" parent="VDZzqtf6pBX9vTgafcBY-138">
          <mxGeometry x="16" y="27" width="90" height="40" as="geometry" />
        </mxCell>
        <mxCell id="VDZzqtf6pBX9vTgafcBY-171" style="edgeStyle=orthogonalEdgeStyle;rounded=0;orthogonalLoop=1;jettySize=auto;html=1;exitX=0.5;exitY=1;exitDx=0;exitDy=0;entryX=0.513;entryY=0.152;entryDx=0;entryDy=0;entryPerimeter=0;" edge="1" parent="VDZzqtf6pBX9vTgafcBY-77" source="VDZzqtf6pBX9vTgafcBY-166" target="VDZzqtf6pBX9vTgafcBY-138">
          <mxGeometry relative="1" as="geometry" />
        </mxCell>
        <mxCell id="VDZzqtf6pBX9vTgafcBY-172" style="edgeStyle=orthogonalEdgeStyle;rounded=0;orthogonalLoop=1;jettySize=auto;html=1;exitX=0.5;exitY=1;exitDx=0;exitDy=0;entryX=0.5;entryY=0;entryDx=0;entryDy=0;" edge="1" parent="VDZzqtf6pBX9vTgafcBY-77" source="VDZzqtf6pBX9vTgafcBY-168" target="VDZzqtf6pBX9vTgafcBY-106">
          <mxGeometry relative="1" as="geometry" />
        </mxCell>
        <mxCell id="VDZzqtf6pBX9vTgafcBY-97" value="初始化" style="swimlane;whiteSpace=wrap;html=1;startSize=23;" vertex="1" parent="VDZzqtf6pBX9vTgafcBY-86">
          <mxGeometry x="23" y="33" width="261" height="207" as="geometry">
            <mxRectangle x="180" y="260" width="130" height="60" as="alternateBounds" />
          </mxGeometry>
        </mxCell>
        <mxCell id="VDZzqtf6pBX9vTgafcBY-98" value="&lt;div&gt;role = new Role();&lt;/div&gt;&lt;div&gt;&amp;nbsp; &amp;nbsp; &amp;nbsp; &amp;nbsp; quiz = new Quiz();&lt;/div&gt;&lt;div&gt;&amp;nbsp; &amp;nbsp; &amp;nbsp; &amp;nbsp; blocks = randomGenBlocks();&lt;/div&gt;&lt;div&gt;&amp;nbsp; &amp;nbsp; &amp;nbsp; &amp;nbsp; door = loadImage(&quot;icons/door.png&quot;);&lt;/div&gt;&lt;div&gt;&amp;nbsp; &amp;nbsp; &amp;nbsp; &amp;nbsp; loadSounds();&lt;/div&gt;&lt;div&gt;&amp;nbsp; &amp;nbsp; &amp;nbsp; &amp;nbsp; loadBlocks();&lt;/div&gt;&lt;div&gt;&amp;nbsp; &amp;nbsp; &amp;nbsp; &amp;nbsp; loadSubjectImages();&lt;/div&gt;&lt;div&gt;&amp;nbsp; &amp;nbsp; &amp;nbsp; &amp;nbsp; loadBackgroundImages();&lt;/div&gt;&lt;div&gt;&amp;nbsp; &amp;nbsp; &amp;nbsp; &amp;nbsp; loadQuestions();&lt;/div&gt;&lt;div&gt;&amp;nbsp; &amp;nbsp; &amp;nbsp; &amp;nbsp; loadResultPage();&lt;/div&gt;&lt;div&gt;&amp;nbsp; &amp;nbsp; &amp;nbsp; &amp;nbsp; reset();&lt;/div&gt;" style="whiteSpace=wrap;html=1;" vertex="1" parent="VDZzqtf6pBX9vTgafcBY-97">
          <mxGeometry x="16.13" y="33" width="228.75" height="160" as="geometry" />
        </mxCell>
        <mxCell id="VDZzqtf6pBX9vTgafcBY-110" style="edgeStyle=orthogonalEdgeStyle;rounded=0;orthogonalLoop=1;jettySize=auto;html=1;exitX=0.5;exitY=1;exitDx=0;exitDy=0;entryX=0.5;entryY=0;entryDx=0;entryDy=0;" edge="1" parent="VDZzqtf6pBX9vTgafcBY-86" source="VDZzqtf6pBX9vTgafcBY-93" target="VDZzqtf6pBX9vTgafcBY-74">
          <mxGeometry relative="1" as="geometry" />
        </mxCell>
        <mxCell id="VDZzqtf6pBX9vTgafcBY-141" value="&lt;span style=&quot;font-weight: 400;&quot;&gt;role.draw();&lt;/span&gt;" style="swimlane;whiteSpace=wrap;html=1;fillColor=#ffe6cc;strokeColor=#d79b00;" vertex="1" parent="VDZzqtf6pBX9vTgafcBY-86">
          <mxGeometry x="20" y="796" width="490" height="134" as="geometry">
            <mxRectangle x="40" y="390" width="120" height="60" as="alternateBounds" />
          </mxGeometry>
        </mxCell>
        <mxCell id="VDZzqtf6pBX9vTgafcBY-142" value="&lt;span style=&quot;font-weight: 700;&quot;&gt;check freeze timer&lt;/span&gt;" style="rounded=0;whiteSpace=wrap;html=1;" vertex="1" parent="VDZzqtf6pBX9vTgafcBY-141">
          <mxGeometry x="5.5" y="30" width="110" height="50" as="geometry" />
        </mxCell>
        <mxCell id="VDZzqtf6pBX9vTgafcBY-148" value="faceRight" style="swimlane;whiteSpace=wrap;html=1;" vertex="1" parent="VDZzqtf6pBX9vTgafcBY-141">
          <mxGeometry x="124" y="30" width="173" height="90" as="geometry" />
        </mxCell>
        <mxCell id="VDZzqtf6pBX9vTgafcBY-149" value="game.doodleJump.fireTimer" style="rounded=0;whiteSpace=wrap;html=1;" vertex="1" parent="VDZzqtf6pBX9vTgafcBY-148">
          <mxGeometry x="4.5" y="26" width="163.5" height="54" as="geometry" />
        </mxCell>
        <mxCell id="VDZzqtf6pBX9vTgafcBY-152" value="updateByKeyPress" style="swimlane;whiteSpace=wrap;html=1;" vertex="1" parent="VDZzqtf6pBX9vTgafcBY-141">
          <mxGeometry x="305" y="30" width="180" height="90" as="geometry" />
        </mxCell>
        <mxCell id="VDZzqtf6pBX9vTgafcBY-153" value="game.doodleJump.freezeTimer" style="rounded=0;whiteSpace=wrap;html=1;" vertex="1" parent="VDZzqtf6pBX9vTgafcBY-152">
          <mxGeometry x="2.5" y="29" width="173.5" height="54" as="geometry" />
        </mxCell>
        <mxCell id="VDZzqtf6pBX9vTgafcBY-157" style="edgeStyle=orthogonalEdgeStyle;rounded=0;orthogonalLoop=1;jettySize=auto;html=1;exitX=0.5;exitY=0;exitDx=0;exitDy=0;entryX=0.25;entryY=1;entryDx=0;entryDy=0;" edge="1" parent="VDZzqtf6pBX9vTgafcBY-86" source="VDZzqtf6pBX9vTgafcBY-132" target="VDZzqtf6pBX9vTgafcBY-75">
          <mxGeometry relative="1" as="geometry">
            <Array as="points">
              <mxPoint x="74" y="553" />
              <mxPoint x="74" y="256" />
              <mxPoint x="294" y="256" />
              <mxPoint x="294" y="160" />
            </Array>
          </mxGeometry>
        </mxCell>
        <mxCell id="VDZzqtf6pBX9vTgafcBY-132" value="check gameover&lt;div&gt;check canvaOffset&lt;/div&gt;&lt;div&gt;draw the door&lt;/div&gt;&lt;div&gt;drawBottomSection();&lt;/div&gt;" style="rounded=0;whiteSpace=wrap;html=1;" vertex="1" parent="VDZzqtf6pBX9vTgafcBY-86">
          <mxGeometry x="38" y="496" width="117" height="82" as="geometry" />
        </mxCell>
        <mxCell id="VDZzqtf6pBX9vTgafcBY-162" style="edgeStyle=orthogonalEdgeStyle;rounded=0;orthogonalLoop=1;jettySize=auto;html=1;exitX=1;exitY=0.5;exitDx=0;exitDy=0;entryX=0;entryY=0.5;entryDx=0;entryDy=0;" edge="1" parent="VDZzqtf6pBX9vTgafcBY-86" source="VDZzqtf6pBX9vTgafcBY-135" target="VDZzqtf6pBX9vTgafcBY-77">
          <mxGeometry relative="1" as="geometry" />
        </mxCell>
        <mxCell id="VDZzqtf6pBX9vTgafcBY-165" style="edgeStyle=orthogonalEdgeStyle;rounded=0;orthogonalLoop=1;jettySize=auto;html=1;exitX=0.75;exitY=1;exitDx=0;exitDy=0;entryX=0;entryY=0.5;entryDx=0;entryDy=0;" edge="1" parent="VDZzqtf6pBX9vTgafcBY-86" source="VDZzqtf6pBX9vTgafcBY-134" target="VDZzqtf6pBX9vTgafcBY-76">
          <mxGeometry relative="1" as="geometry" />
        </mxCell>
        <mxCell id="VDZzqtf6pBX9vTgafcBY-170" style="edgeStyle=orthogonalEdgeStyle;rounded=0;orthogonalLoop=1;jettySize=auto;html=1;exitX=1;exitY=0.75;exitDx=0;exitDy=0;entryX=0;entryY=0.75;entryDx=0;entryDy=0;" edge="1" parent="VDZzqtf6pBX9vTgafcBY-86" source="VDZzqtf6pBX9vTgafcBY-98" target="VDZzqtf6pBX9vTgafcBY-166">
          <mxGeometry relative="1" as="geometry" />
        </mxCell>
        <mxCell id="VDZzqtf6pBX9vTgafcBY-173" style="edgeStyle=orthogonalEdgeStyle;rounded=0;orthogonalLoop=1;jettySize=auto;html=1;exitX=0;exitY=0.75;exitDx=0;exitDy=0;entryX=1;entryY=0.5;entryDx=0;entryDy=0;" edge="1" parent="VDZzqtf6pBX9vTgafcBY-86" source="VDZzqtf6pBX9vTgafcBY-139" target="VDZzqtf6pBX9vTgafcBY-74">
          <mxGeometry relative="1" as="geometry" />
        </mxCell>
        <mxCell id="VDZzqtf6pBX9vTgafcBY-94" value="初始化" style="swimlane;whiteSpace=wrap;html=1;startSize=23;" vertex="1" parent="VDZzqtf6pBX9vTgafcBY-35">
          <mxGeometry x="20" y="230" width="180" height="180" as="geometry">
            <mxRectangle x="180" y="260" width="130" height="60" as="alternateBounds" />
          </mxGeometry>
        </mxCell>
        <mxCell id="VDZzqtf6pBX9vTgafcBY-95" value="&lt;div&gt;loadMusics();&lt;/div&gt;&lt;div&gt;&amp;nbsp; &amp;nbsp; loadFonts();&lt;/div&gt;&lt;div&gt;&amp;nbsp; &amp;nbsp; loadBackgroundImages();&lt;/div&gt;&lt;div&gt;&amp;nbsp; &amp;nbsp; doodleJump = new DoodleJump();&lt;/div&gt;&lt;div&gt;&amp;nbsp; &amp;nbsp; gameStatus = Status.START;&lt;/div&gt;&lt;div&gt;&amp;nbsp; &amp;nbsp; openningMusic.loop();&lt;/div&gt;&lt;div&gt;&amp;nbsp; &amp;nbsp; lines = loadStrings(&quot;aboutUs.txt&quot;);&lt;/div&gt;" style="whiteSpace=wrap;html=1;" vertex="1" parent="VDZzqtf6pBX9vTgafcBY-94">
          <mxGeometry x="11.25" y="27" width="157.5" height="150" as="geometry" />
        </mxCell>
        <mxCell id="VDZzqtf6pBX9vTgafcBY-87" value="&lt;span style=&quot;font-weight: 400;&quot;&gt;LEVEL2&lt;/span&gt;" style="swimlane;whiteSpace=wrap;html=1;fillColor=#dae8fc;strokeColor=#6c8ebf;" vertex="1" parent="VDZzqtf6pBX9vTgafcBY-35">
          <mxGeometry x="850" y="110" width="560" height="530" as="geometry">
            <mxRectangle x="40" y="390" width="120" height="60" as="alternateBounds" />
          </mxGeometry>
        </mxCell>
        <mxCell id="VDZzqtf6pBX9vTgafcBY-88" value="" style="rounded=0;whiteSpace=wrap;html=1;" vertex="1" parent="VDZzqtf6pBX9vTgafcBY-87">
          <mxGeometry x="25" y="60" width="130" height="60" as="geometry" />
        </mxCell>
        <mxCell id="VDZzqtf6pBX9vTgafcBY-161" style="edgeStyle=orthogonalEdgeStyle;rounded=0;orthogonalLoop=1;jettySize=auto;html=1;exitX=1;exitY=0.5;exitDx=0;exitDy=0;entryX=0.25;entryY=1;entryDx=0;entryDy=0;" edge="1" parent="VDZzqtf6pBX9vTgafcBY-35" source="VDZzqtf6pBX9vTgafcBY-104" target="VDZzqtf6pBX9vTgafcBY-87">
          <mxGeometry relative="1" as="geometry" />
        </mxCell>
        <mxCell id="VDZzqtf6pBX9vTgafcBY-175" style="edgeStyle=orthogonalEdgeStyle;rounded=0;orthogonalLoop=1;jettySize=auto;html=1;exitX=1;exitY=0.5;exitDx=0;exitDy=0;entryX=0;entryY=0.5;entryDx=0;entryDy=0;" edge="1" parent="VDZzqtf6pBX9vTgafcBY-35" source="VDZzqtf6pBX9vTgafcBY-53" target="VDZzqtf6pBX9vTgafcBY-70">
          <mxGeometry relative="1" as="geometry">
            <Array as="points">
              <mxPoint x="220" y="620" />
              <mxPoint x="220" y="477" />
            </Array>
          </mxGeometry>
        </mxCell>
        <mxCell id="VDZzqtf6pBX9vTgafcBY-176" style="edgeStyle=orthogonalEdgeStyle;rounded=0;orthogonalLoop=1;jettySize=auto;html=1;exitX=0.5;exitY=1;exitDx=0;exitDy=0;entryX=0.5;entryY=0;entryDx=0;entryDy=0;" edge="1" parent="VDZzqtf6pBX9vTgafcBY-35" source="VDZzqtf6pBX9vTgafcBY-95" target="VDZzqtf6pBX9vTgafcBY-51">
          <mxGeometry relative="1" as="geometry" />
        </mxCell>
      </root>
    </mxGraphModel>
  </diagram>
</mxfile>
